<svg width="14" height="14" viewBox="0 0 14 14" fill="none" xmlns="http://www.w3.org/2000/svg">
<path d="M13.7812 12.8789L10.1172 9.21484C10.9102 8.25781 11.3477 7.02734 11.3477 5.6875C11.3477 2.57031 8.77734 0 5.66016 0C2.51562 0 0 2.57031 0 5.6875C0 8.83203 2.54297 11.375 5.66016 11.375C6.97266 11.375 8.20312 10.9375 9.1875 10.1445L12.8516 13.8086C12.9883 13.9453 13.1523 14 13.3438 14C13.5078 14 13.6719 13.9453 13.7812 13.8086C14.0547 13.5625 14.0547 13.1523 13.7812 12.8789ZM1.3125 5.6875C1.3125 3.28125 3.25391 1.3125 5.6875 1.3125C8.09375 1.3125 10.0625 3.28125 10.0625 5.6875C10.0625 8.12109 8.09375 10.0625 5.6875 10.0625C3.25391 10.0625 1.3125 8.12109 1.3125 5.6875Z" fill="white"/>
</svg>
